OpenSim_Sub01_EMGStiffKnee_GRF.mot
version=1
nRows=45
nColumns=19
inDegrees=no
endheader
time	lFx	lFy	lFz	lCOPx	lCOPy	lCOPz	rFx	rFy	rFz	rCOPx	rCOPy	rCOPz	lMx	lMy	lMz	rMx	rMy	rMz
27.83000000	-9.36031287	594.49666789	41.97244909	1.03767874	0	-0.63511093	-10.43380610	59.71054863	-3.93093745	0.76639687	0	-0.39882548	0	-3.98297054	0	0	0.03421125	-0.00000000
27.84000000	-6.09189407	602.28408969	42.74931515	1.03272147	0	-0.63561804	-15.45502232	36.82242368	-4.18657919	0.57375717	0	-0.29677479	0	-3.46634763	0	0	-0.10769747	-0.00000000
27.85000000	-2.58605195	610.57528538	43.30736066	1.02754672	0	-0.63610418	-13.63814634	19.08288789	-3.16930794	0.30843037	0	-0.15771382	0	-2.94792384	0	0	-0.11724350	-0.00000000
27.86000000	0.65523701	617.78752773	44.23371583	1.02224828	0	-0.63657577	-7.68837968	6.26403661	-1.49216089	0.10053875	0	-0.05020975	0	-2.58457179	0	0	-0.06659357	0.00000000
27.87000000	3.28662765	622.16178692	45.64772763	1.01722289	0	-0.63705854	-2.62280354	-0.47705206	-0.11523269	-0.00023632	0	0.00108892	0	-2.43720517	0	0	-0.02280058	-0.00000000
27.88000000	5.28982924	622.57118053	47.16454455	1.01272959	0	-0.63758967	-0.07731724	-2.50651544	0.21545618	-0.02670486	0	0.01411981	0	-2.48322576	0	0	-0.00083079	0.00000000
27.89000000	6.99116581	619.37472328	48.29009250	1.00850235	0	-0.63814628	0.65974577	-2.31466416	0.20242420	-0.02148015	0	0.01110310	0	-2.63823337	0	0	0.00534281	-0.00000000
27.90000000	8.74342049	614.28436746	48.88847373	1.00421707	0	-0.63864592	0.59971616	-1.62958085	0.17480560	-0.01028512	0	0.00523303	0	-2.86786326	0	0	0.00452907	0.00000000
27.91000000	10.55276761	609.13334448	49.03861341	0.99983571	0	-0.63902083	0.34547697	-1.13245676	0.02776406	-0.00263211	0	0.00129330	0	-3.11278129	0	0	0.00224453	0.00000000
27.92000000	11.99313139	605.11840588	48.93935574	0.99547829	0	-0.63932494	0.12275014	-0.88909443	-0.02815472	0.00058912	0	-0.00033677	0	-3.34880132	0	0	0.00061622	0.00000000
27.93000000	12.62422673	602.38211739	48.74819789	0.99127731	0	-0.63963070	-0.00031392	-0.78392623	-0.02250051	0.00116938	0	-0.00061274	0	-3.58917020	0	0	-0.00009483	-0.00000000
27.94000000	12.32370904	600.63517031	48.52235188	0.98734034	0	-0.63996440	-0.04850685	-0.73776982	-0.03586157	0.00078796	0	-0.00040548	0	-3.85381011	0	0	-0.00023901	0.00000000
27.95000000	11.30951693	599.83551688	48.23327530	0.98360486	0	-0.64031481	-0.04966606	-0.72276870	-0.04203898	0.00032725	0	-0.00016550	0	-4.12037413	0	0	-0.00016780	-0.00000000
27.96000000	9.90476987	600.26447100	47.85882475	0.97999613	0	-0.64064792	-0.04068219	-0.66564816	-0.04456884	0.00005619	0	-0.00002657	0	-4.35056410	0	0	-0.00007233	0.00000000
27.97000000	8.55065780	602.11015884	47.49909197	0.97634808	0	-0.64092029	-0.04985905	-0.59176712	-0.05862053	-0.00004097	0	0.00002221	0	-4.52856697	0	0	-0.00001409	-0.00000000
27.98000000	7.59356199	605.19340516	47.30318476	0.97244209	0	-0.64112194	-0.10311052	-0.56655757	-0.06277991	-0.00004787	0	0.00002492	0	-4.66326615	0	0	0.00000770	-0.00000000
27.99000000	7.15639048	608.63102876	47.26028707	0.96815310	0	-0.64123819	-0.17710747	-0.64114486	-0.04046569	-0.00002781	0	0.00001425	0	-4.79816992	0	0	0.00000992	0.00000000
28.00000000	7.10793650	611.40553956	47.19704746	0.96353724	0	-0.64121652	-0.20177610	-0.79595194	-0.02418533	-0.00000983	0	0.00000493	0	-4.93468829	0	0	0.00000596	0.00000000
28.01000000	7.31530580	613.01985697	46.90598743	0.95856845	0	-0.64101624	-0.14972365	-0.99793496	-0.02339617	-0.00000063	0	0.00000023	0	-5.04334733	0	0	0.00000217	-0.00000000
28.02000000	7.84298910	613.59896798	46.33475733	0.95322057	0	-0.64061427	-0.07418978	-1.17373568	0.05317693	0.00000201	0	-0.00000108	0	-5.08276402	0	0	0.00000018	-0.00000000
28.03000000	8.74299122	613.63651327	45.59338590	0.94768542	0	-0.64001567	-0.01315232	-1.21113226	0.08948280	0.00000173	0	-0.00000091	0	-5.06621219	0	0	-0.00000034	-0.00000000
28.04000000	10.03278875	613.80087274	44.72544936	0.94231649	0	-0.63925564	0.00679259	-1.03256765	0.07367583	0.00000096	0	-0.00000048	0	-5.00159438	0	0	-0.00000007	-0.00000000
28.05000000	11.59194898	614.61329488	43.72219148	0.93724950	0	-0.63837953	-0.00782136	-0.76002661	0.09143165	0.00000083	0	-0.00000033	0	-4.89961638	0	0	0.00000046	-0.00000000
28.06000000	13.50036528	616.36888697	42.50447268	0.93213446	0	-0.63749600	0.00959072	-0.61028153	0.07024964	0.00000162	0	-0.00000059	0	-4.74178945	0	0	0.00000077	-0.00000000
28.07000000	15.78636974	619.01110682	41.21708539	0.92665351	0	-0.63675625	0.03736616	-0.61086427	0.08079553	0.00000284	0	-0.00000106	0	-4.54090117	0	0	0.00000000	-0.00000000
28.08000000	18.24961790	622.06822192	40.15041292	0.92087028	0	-0.63624205	0.06369681	-0.72001642	0.09612904	0.00000266	0	-0.00000105	0	-4.35106692	0	0	-0.00000312	-0.00000000
28.09000000	20.55677198	625.19332050	39.54037983	0.91514832	0	-0.63596690	0.06594229	-0.82344078	0.04047717	-0.00000281	0	0.00000092	0	-4.24294395	0	0	-0.00000959	0.00000000
28.10000000	22.68257830	628.29549856	39.43322949	0.90957664	0	-0.63589317	0.06211481	-0.82786772	0.02560938	-0.00001886	0	0.00000689	0	-4.24097928	0	0	-0.00001747	-0.00000000
28.11000000	24.81916539	631.48527562	39.70592992	0.90407902	0	-0.63595400	0.05188811	-0.71999021	0.04605433	-0.00004713	0	0.00001764	0	-4.31177136	0	0	-0.00001702	-0.00000000
28.12000000	27.00447271	634.74389027	40.18003193	0.89869518	0	-0.63608114	0.02923226	-0.62639220	0.03794048	-0.00007271	0	0.00002783	0	-4.40779065	0	0	0.00001417	0.00000000
28.13000000	28.91394132	637.75914828	40.64537358	0.89369351	0	-0.63624012	-0.01197703	-0.62814704	0.06186391	-0.00004367	0	0.00001824	0	-4.49912602	0	0	0.00010791	-0.00000000
28.14000000	30.21631387	639.84737275	40.87083002	0.88915712	0	-0.63640757	-0.07888013	-0.71160510	0.10494224	0.00014212	0	-0.00004975	0	-4.55299484	0	0	0.00027635	0.00000000
28.15000000	30.95728897	640.53821566	40.80743329	0.88494490	0	-0.63654196	-0.11901169	-0.78588549	0.11597825	0.00060033	0	-0.00022133	0	-4.58339865	0	0	0.00043613	0.00000000
28.16000000	31.42906457	639.83686800	40.56656666	0.88088161	0	-0.63659987	-0.08719212	-0.83533798	0.08114849	0.00129741	0	-0.00048837	0	-4.61354377	0	0	0.00028616	0.00000000
28.17000000	31.92996678	637.86071615	40.28513378	0.87681460	0	-0.63657850	-0.00331560	-0.85291763	0.08131883	0.00169223	0	-0.00065461	0	-4.63471124	0	0	-0.00077843	-0.00000000
28.18000000	32.57326593	634.59564091	39.99236711	0.87263854	0	-0.63652345	0.10877391	-0.95229748	0.09253021	0.00025665	0	-0.00015051	0	-4.64221126	0	0	-0.00346619	0.00000000
28.19000000	33.49366397	629.86568202	39.55111415	0.86823164	0	-0.63645372	0.20003373	-1.40567288	0.06101234	-0.00563166	0	0.00202178	0	-4.63264944	0	0	-0.00765091	0.00000000
28.20000000	34.75141669	623.64489492	38.78787785	0.86341580	0	-0.63636382	0.02079195	-2.39624904	-0.03757894	-0.01819967	0	0.00675509	0	-4.58189349	0	0	-0.01025969	0.00000000
28.21000000	36.40211277	616.41774604	37.54148878	0.85811911	0	-0.63622353	-0.83920073	-3.66095458	-0.11502683	-0.03431571	0	0.01299653	0	-4.41970897	0	0	-0.00237166	0.00000000
28.22000000	38.32390782	608.90082137	35.83852729	0.85241728	0	-0.63600556	-2.64416275	-3.77993086	0.04300459	-0.03595607	0	0.01414011	0	-4.13142398	0	0	0.03164896	0.00000000
28.23000000	40.46976531	601.15832530	33.76375209	0.84633376	0	-0.63565689	-4.93003311	0.63459970	0.86145697	0.02013641	0	-0.00602866	0	-3.72384837	0	0	0.10580288	-0.00000000
28.24000000	42.79751551	592.54162126	31.44864587	0.84000625	0	-0.63514913	-5.74216281	15.50611801	2.70679929	0.19793565	0	-0.07205844	0	-3.21300771	0	0	0.20362739	0.00000000
28.25000000	45.11911894	581.98231799	28.96176119	0.83357109	0	-0.63450609	-2.19958488	48.63011150	5.71441299	0.52910314	0	-0.19755692	0	-2.62498988	0	0	0.22167630	0.00000000
28.26000000	47.13224861	568.32857891	26.18694914	0.82725873	0	-0.63380532	4.74818645	104.41873318	9.40185584	0.88915869	0	-0.33800011	0	-1.96061478	0	0	-0.04258298	0.00000000
28.27000000	48.62345244	550.51825293	22.99450079	0.82120497	0	-0.63305952	7.05827899	177.00964968	11.92903862	1.10585985	0	-0.42542277	0	-1.23532542	0	0	-0.42498870	0.00000000
